<svg width="130" height="38" viewBox="0 0 130 38" xmlns="http://www.w3.org/2000/svg"><path d="M6.344.384H.2l16.32 37.2L31.784.384h-6.048l-9.36 23.472L6.344.384zM63.384 36c-2.4 0-4.752-.48-6.912-1.392-2.16-.912-4.032-2.208-5.664-3.84-1.632-1.632-2.928-3.504-3.84-5.664a17.778 17.778 0 0 1-1.392-6.912c0-2.4.48-4.752 1.392-6.96.912-2.112 2.208-3.984 3.84-5.664 1.632-1.632 3.504-2.88 5.664-3.792A17.778 17.778 0 0 1 63.384.384c2.4 0 4.752.48 6.96 1.392a18.624 18.624 0 0 1 5.664 3.792 18.624 18.624 0 0 1 3.792 5.664 18.194 18.194 0 0 1 1.392 6.96c0 2.4-.48 4.752-1.392 6.912-.912 2.16-2.16 4.032-3.792 5.664-1.68 1.632-3.552 2.928-5.664 3.84A18.194 18.194 0 0 1 63.384 36zm0-30.048c-3.264 0-6.336 1.296-8.64 3.6-2.304 2.304-3.6 5.376-3.6 8.64 0 3.264 1.296 6.336 3.6 8.64 2.304 2.304 5.376 3.6 8.64 3.6 3.264 0 6.336-1.296 8.64-3.6 2.304-2.304 3.6-5.376 3.6-8.64 0-3.264-1.296-6.336-3.6-8.64-2.304-2.304-5.376-3.6-8.64-3.6zM129.448 36L116.44 16.944 127.768.384h-7.008l-7.824 11.424L105.16.384h-7.008l11.28 16.56L96.472 36h7.008l9.456-13.92L122.44 36h7.008z" fill="#F8E81C" fill-rule="evenodd"/></svg>
